<?xml version="1.0" encoding="UTF-8" standalone="no"?>
<!DOCTYPE svg PUBLIC "-//W3C//DTD SVG 1.1//EN" "http://www.w3.org/Graphics/SVG/1.1/DTD/svg11.dtd">
<svg width="100%" height="100%" viewBox="0 0 391 391" version="1.1" xmlns="http://www.w3.org/2000/svg" xmlns:xlink="http://www.w3.org/1999/xlink" xml:space="preserve" xmlns:serif="http://www.serif.com/" style="fill-rule:evenodd;clip-rule:evenodd;stroke-linejoin:round;stroke-miterlimit:2;">
    <g transform="matrix(1,0,0,1,-44.9317,-44.9317)">
        <g transform="matrix(1,0,0,1,47.4099,11.1873)">
            <path d="M233.929,54.414C233.929,43.006 224.668,33.744 213.26,33.744L171.921,33.744C160.513,33.744 151.251,43.006 151.251,54.414L151.251,403.211C151.251,414.619 160.513,423.881 171.921,423.881L213.26,423.881C224.668,423.881 233.929,414.619 233.929,403.211L233.929,54.414Z" style="fill:rgb(199,209,202);"/>
        </g>
        <g transform="matrix(6.12323e-17,1,-1,6.12323e-17,468.813,47.4099)">
            <path d="M233.929,54.414C233.929,43.006 224.668,33.744 213.26,33.744L171.921,33.744C160.513,33.744 151.251,43.006 151.251,54.414L151.251,403.211C151.251,414.619 160.513,423.881 171.921,423.881L213.26,423.881C224.668,423.881 233.929,414.619 233.929,403.211L233.929,54.414Z" style="fill:rgb(199,209,202);"/>
        </g>
    </g>
</svg>
